 http://desibbrg.org/images/66952052392581364616.gif
 
http://desibbrg.org/images/09712613028838048553.jpg
 
http://desibbrg.org/images/58668307184280472428.jpg
 
http://desibbrg.org/images/59704467471916985096.png

Media Info - 
General
Format                           : MPEG-4
Format profile                   : Base Media / Version 2
Codec ID                         : mp42
File size                        : 317 MiB
Duration                         : 1h 51mn
Overall bit rate                 : 396 Kbps
Encoded date                     : UTC 2012-10-29 22:28:29
Tagged date                      : UTC 2012-10-29 22:28:29

Video
ID                               : 201
Format                           : AVC
Format/Info                      : Advanced Video Codec
Format profile                   : High@L1.3
Format settings, CABAC           : Yes
Format settings, ReFrames        : 4 frames
Format settings, GOP             : M=4, N=60
Codec ID                         : avc1
Codec ID/Info                    : Advanced Video Coding
Duration                         : 1h 51mn
Bit rate mode                    : Variable
Bit rate                         : 311 Kbps
Maximum bit rate                 : 963 Kbps
Width                            : 416 pixels
Height                           : 228 pixels
Display aspect ratio             : 16:9
Original display aspect ratio    : 16:9
Frame rate mode                  : Constant
Frame rate                       : 29.970 fps
Color space                      : YUV
Chroma subsampling               : 4:2:0
Bit depth                        : 8 bits
Scan type                        : Progressive
Bits/(Pixel*Frame)               : 0.109
Stream size                      : 249 MiB (79%)
Writing library                  : x264 core 124 r2197 69a0443
Tagged date                      : UTC 2012-10-29 22:30:00

Audio
ID                               : 101
Format                           : AAC
Format/Info                      : Advanced Audio Codec
Format profile                   : LC
Codec ID                         : 40
Duration                         : 1h 51mn
Bit rate mode                    : Variable
Bit rate                         : 80.0 Kbps
Maximum bit rate                 : 138 Kbps
Channel(s)                       : 2 channels
Channel positions                : Front: L R
Sampling rate                    : 44.1 KHz
Compression mode                 : Lossy
Stream size                      : 64.0 MiB (20%)
Encoded date                     : UTC 2012-10-29 22:29:03
Tagged date                      : UTC 2012-10-29 22:30:00

Ripper : Lottery

Seeding 24x7... Extreme Seeding...


Enjoy!
